  0
SECTION
  2
HEADER
  9
$ACADVER
  1
AC1024
  9
$ACADMAINTVER
 70
6
  9
$DWGCODEPAGE
  3
ANSI_1252
  9
$LASTSAVEDBY
  1
ezdxf
  9
$INSBASE
 10
0.0
 20
0.0
 30
0.0
  9
$EXTMIN
 10
1e+20
 20
1e+20
 30
1e+20
  9
$EXTMAX
 10
-1e+20
 20
-1e+20
 30
-1e+20
  9
$LIMMIN
 10
0.0
 20
0.0
  9
$LIMMAX
 10
420.0
 20
297.0
  9
$ORTHOMODE
 70
0
  9
$REGENMODE
 70
1
  9
$FILLMODE
 70
1
  9
$QTEXTMODE
 70
0
  9
$MIRRTEXT
 70
1
  9
$LTSCALE
 40
1.0
  9
$ATTMODE
 70
1
  9
$TEXTSIZE
 40
2.5
  9
$TRACEWID
 40
1.0
  9
$TEXTSTYLE
  7
Standard
  9
$CLAYER
  8
0
  9
$CELTYPE
  6
ByLayer
  9
$CECOLOR
 62
256
  9
$CELTSCALE
 40
1.0
  9
$DISPSILH
 70
0
  9
$DIMSCALE
 40
1.0
  9
$DIMASZ
 40
2.5
  9
$DIMEXO
 40
0.625
  9
$DIMDLI
 40
3.75
  9
$DIMRND
 40
0.0
  9
$DIMDLE
 40
0.0
  9
$DIMEXE
 40
1.25
  9
$DIMTP
 40
0.0
  9
$DIMTM
 40
0.0
  9
$DIMTXT
 40
2.5
  9
$DIMCEN
 40
2.5
  9
$DIMTSZ
 40
0.0
  9
$DIMTOL
 70
0
  9
$DIMLIM
 70
0
  9
$DIMTIH
 70
0
  9
$DIMTOH
 70
0
  9
$DIMSE1
 70
0
  9
$DIMSE2
 70
0
  9
$DIMTAD
 70
1
  9
$DIMZIN
 70
8
  9
$DIMBLK
  1

  9
$DIMASO
 70
1
  9
$DIMSHO
 70
1
  9
$DIMPOST
  1

  9
$DIMAPOST
  1

  9
$DIMALT
 70
0
  9
$DIMALTD
 70
3
  9
$DIMALTF
 40
0.03937007874
  9
$DIMLFAC
 40
1.0
  9
$DIMTOFL
 70
1
  9
$DIMTVP
 40
0.0
  9
$DIMTIX
 70
0
  9
$DIMSOXD
 70
0
  9
$DIMSAH
 70
0
  9
$DIMBLK1
  1

  9
$DIMBLK2
  1

  9
$DIMSTYLE
  2
ISO-25
  9
$DIMCLRD
 70
0
  9
$DIMCLRE
 70
0
  9
$DIMCLRT
 70
0
  9
$DIMTFAC
 40
1.0
  9
$DIMGAP
 40
0.625
  9
$DIMJUST
 70
0
  9
$DIMSD1
 70
0
  9
$DIMSD2
 70
0
  9
$DIMTOLJ
 70
0
  9
$DIMTZIN
 70
8
  9
$DIMALTZ
 70
0
  9
$DIMALTTZ
 70
0
  9
$DIMUPT
 70
0
  9
$DIMDEC
 70
2
  9
$DIMTDEC
 70
2
  9
$DIMALTU
 70
2
  9
$DIMALTTD
 70
3
  9
$DIMTXSTY
  7
Standard
  9
$DIMAUNIT
 70
0
  9
$DIMADEC
 70
0
  9
$DIMALTRND
 40
0.0
  9
$DIMAZIN
 70
0
  9
$DIMDSEP
 70
44
  9
$DIMATFIT
 70
3
  9
$DIMFRAC
 70
0
  9
$DIMLDRBLK
  1

  9
$DIMLUNIT
 70
2
  9
$DIMLWD
 70
-2
  9
$DIMLWE
 70
-2
  9
$DIMTMOVE
 70
0
  9
$DIMFXL
 40
1.0
  9
$DIMFXLON
 70
0
  9
$DIMJOGANG
 40
0.785398163397
  9
$DIMTFILL
 70
0
  9
$DIMTFILLCLR
 70
0
  9
$DIMARCSYM
 70
0
  9
$DIMLTYPE
  6

  9
$DIMLTEX1
  6

  9
$DIMLTEX2
  6

  9
$DIMTXTDIRECTION
 70
0
  9
$LUNITS
 70
2
  9
$LUPREC
 70
4
  9
$SKETCHINC
 40
1.0
  9
$FILLETRAD
 40
10.0
  9
$AUNITS
 70
0
  9
$AUPREC
 70
2
  9
$MENU
  1
.
  9
$ELEVATION
 40
0.0
  9
$PELEVATION
 40
0.0
  9
$THICKNESS
 40
0.0
  9
$LIMCHECK
 70
0
  9
$CHAMFERA
 40
0.0
  9
$CHAMFERB
 40
0.0
  9
$CHAMFERC
 40
0.0
  9
$CHAMFERD
 40
0.0
  9
$SKPOLY
 70
0
  9
$TDCREATE
 40
2461131.600810185
  9
$TDUCREATE
 40
2458532.153996898
  9
$TDUPDATE
 40
2461131.600810185
  9
$TDUUPDATE
 40
2458532.1544311
  9
$TDINDWG
 40
0.0
  9
$TDUSRTIMER
 40
0.0
  9
$USRTIMER
 70
1
  9
$ANGBASE
 50
0.0
  9
$ANGDIR
 70
0
  9
$PDMODE
 70
0
  9
$PDSIZE
 40
0.0
  9
$PLINEWID
 40
0.0
  9
$SPLFRAME
 70
0
  9
$SPLINETYPE
 70
6
  9
$SPLINESEGS
 70
8
  9
$HANDSEED
  5
35
  9
$SURFTAB1
 70
6
  9
$SURFTAB2
 70
6
  9
$SURFTYPE
 70
6
  9
$SURFU
 70
6
  9
$SURFV
 70
6
  9
$UCSBASE
  2

  9
$UCSNAME
  2

  9
$UCSORG
 10
0.0
 20
0.0
 30
0.0
  9
$UCSXDIR
 10
1.0
 20
0.0
 30
0.0
  9
$UCSYDIR
 10
0.0
 20
1.0
 30
0.0
  9
$UCSORTHOREF
  2

  9
$UCSORTHOVIEW
 70
0
  9
$UCSORGTOP
 10
0.0
 20
0.0
 30
0.0
  9
$UCSORGBOTTOM
 10
0.0
 20
0.0
 30
0.0
  9
$UCSORGLEFT
 10
0.0
 20
0.0
 30
0.0
  9
$UCSORGRIGHT
 10
0.0
 20
0.0
 30
0.0
  9
$UCSORGFRONT
 10
0.0
 20
0.0
 30
0.0
  9
$UCSORGBACK
 10
0.0
 20
0.0
 30
0.0
  9
$PUCSBASE
  2

  9
$PUCSNAME
  2

  9
$PUCSORG
 10
0.0
 20
0.0
 30
0.0
  9
$PUCSXDIR
 10
1.0
 20
0.0
 30
0.0
  9
$PUCSYDIR
 10
0.0
 20
1.0
 30
0.0
  9
$PUCSORTHOREF
  2

  9
$PUCSORTHOVIEW
 70
0
  9
$PUCSORGTOP
 10
0.0
 20
0.0
 30
0.0
  9
$PUCSORGBOTTOM
 10
0.0
 20
0.0
 30
0.0
  9
$PUCSORGLEFT
 10
0.0
 20
0.0
 30
0.0
  9
$PUCSORGRIGHT
 10
0.0
 20
0.0
 30
0.0
  9
$PUCSORGFRONT
 10
0.0
 20
0.0
 30
0.0
  9
$PUCSORGBACK
 10
0.0
 20
0.0
 30
0.0
  9
$USERI1
 70
0
  9
$USERI2
 70
0
  9
$USERI3
 70
0
  9
$USERI4
 70
0
  9
$USERI5
 70
0
  9
$USERR1
 40
0.0
  9
$USERR2
 40
0.0
  9
$USERR3
 40
0.0
  9
$USERR4
 40
0.0
  9
$USERR5
 40
0.0
  9
$WORLDVIEW
 70
1
  9
$SHADEDGE
 70
3
  9
$SHADEDIF
 70
70
  9
$TILEMODE
 70
1
  9
$MAXACTVP
 70
64
  9
$PINSBASE
 10
0.0
 20
0.0
 30
0.0
  9
$PLIMCHECK
 70
0
  9
$PEXTMIN
 10
1e+20
 20
1e+20
 30
1e+20
  9
$PEXTMAX
 10
-1e+20
 20
-1e+20
 30
-1e+20
  9
$PLIMMIN
 10
0.0
 20
0.0
  9
$PLIMMAX
 10
420.0
 20
297.0
  9
$UNITMODE
 70
0
  9
$VISRETAIN
 70
1
  9
$PLINEGEN
 70
0
  9
$PSLTSCALE
 70
1
  9
$TREEDEPTH
 70
3020
  9
$CMLSTYLE
  2
Standard
  9
$CMLJUST
 70
0
  9
$CMLSCALE
 40
20.0
  9
$PROXYGRAPHICS
 70
1
  9
$MEASUREMENT
 70
1
  9
$CELWEIGHT
370
-1
  9
$ENDCAPS
280
0
  9
$JOINSTYLE
280
0
  9
$LWDISPLAY
290
0
  9
$INSUNITS
 70
6
  9
$HYPERLINKBASE
  1

  9
$STYLESHEET
  1

  9
$XEDIT
290
1
  9
$CEPSNTYPE
380
0
  9
$PSTYLEMODE
290
1
  9
$FINGERPRINTGUID
  2
{FC8835B4-DA49-43C6-A3BA-F9E4F999F1B1}
  9
$VERSIONGUID
  2
{93BF44AA-B9FA-49CF-8C4A-F246BACD9A02}
  9
$EXTNAMES
290
1
  9
$PSVPSCALE
 40
0.0
  9
$OLESTARTUP
290
0
  9
$SORTENTS
280
127
  9
$INDEXCTL
280
0
  9
$HIDETEXT
280
1
  9
$XCLIPFRAME
280
1
  9
$HALOGAP
280
0
  9
$OBSCOLOR
 70
257
  9
$OBSLTYPE
280
0
  9
$INTERSECTIONDISPLAY
280
0
  9
$INTERSECTIONCOLOR
 70
257
  9
$DIMASSOC
280
2
  9
$PROJECTNAME
  1

  9
$CAMERADISPLAY
290
0
  9
$LENSLENGTH
 40
50.0
  9
$CAMERAHEIGHT
 40
0.0
  9
$STEPSPERSEC
 40
24.0
  9
$STEPSIZE
 40
100.0
  9
$3DDWFPREC
 40
2.0
  9
$PSOLWIDTH
 40
0.005
  9
$PSOLHEIGHT
 40
0.08
  9
$LOFTANG1
 40
1.570796326795
  9
$LOFTANG2
 40
1.570796326795
  9
$LOFTMAG1
 40
0.0
  9
$LOFTMAG2
 40
0.0
  9
$LOFTPARAM
 70
7
  9
$LOFTNORMALS
280
1
  9
$LATITUDE
 40
37.795
  9
$LONGITUDE
 40
-122.394
  9
$NORTHDIRECTION
 40
0.0
  9
$TIMEZONE
 70
-8000
  9
$LIGHTGLYPHDISPLAY
280
1
  9
$TILEMODELIGHTSYNCH
280
1
  9
$CMATERIAL
347
20
  9
$SOLIDHIST
280
0
  9
$SHOWHIST
280
1
  9
$DWFFRAME
280
2
  9
$DGNFRAME
280
2
  9
$REALWORLDSCALE
290
1
  9
$INTERFERECOLOR
 62
256
  9
$CSHADOW
280
0
  9
$SHADOWPLANELOCATION
 40
0.0
  0
ENDSEC
  0
SECTION
  2
CLASSES
  0
CLASS
  1
ACDBDICTIONARYWDFLT
  2
AcDbDictionaryWithDefault
  3
ObjectDBX Classes
 90
0
 91
0
280
0
281
0
  0
CLASS
  1
SUN
  2
AcDbSun
  3
SCENEOE
 90
1153
 91
0
280
0
281
0
  0
CLASS
  1
VISUALSTYLE
  2
AcDbVisualStyle
  3
ObjectDBX Classes
 90
4095
 91
0
280
0
281
0
  0
CLASS
  1
MATERIAL
  2
AcDbMaterial
  3
ObjectDBX Classes
 90
1153
 91
0
280
0
281
0
  0
CLASS
  1
SCALE
  2
AcDbScale
  3
ObjectDBX Classes
 90
1153
 91
0
280
0
281
0
  0
CLASS
  1
TABLESTYLE
  2
AcDbTableStyle
  3
ObjectDBX Classes
 90
4095
 91
0
280
0
281
0
  0
CLASS
  1
MLEADERSTYLE
  2
AcDbMLeaderStyle
  3
ACDB_MLEADERSTYLE_CLASS
 90
4095
 91
0
280
0
281
0
  0
CLASS
  1
DICTIONARYVAR
  2
AcDbDictionaryVar
  3
ObjectDBX Classes
 90
0
 91
0
280
0
281
0
  0
CLASS
  1
CELLSTYLEMAP
  2
AcDbCellStyleMap
  3
ObjectDBX Classes
 90
1152
 91
0
280
0
281
0
  0
CLASS
  1
MENTALRAYRENDERSETTINGS
  2
AcDbMentalRayRenderSettings
  3
SCENEOE
 90
1024
 91
0
280
0
281
0
  0
CLASS
  1
ACDBDETAILVIEWSTYLE
  2
AcDbDetailViewStyle
  3
ObjectDBX Classes
 90
1025
 91
0
280
0
281
0
  0
CLASS
  1
ACDBSECTIONVIEWSTYLE
  2
AcDbSectionViewStyle
  3
ObjectDBX Classes
 90
1025
 91
0
280
0
281
0
  0
CLASS
  1
RASTERVARIABLES
  2
AcDbRasterVariables
  3
ISM
 90
0
 91
0
280
0
281
0
  0
CLASS
  1
LAYOUT
  2
AcDbLayout
  3
ObjectDBX Classes
 90
0
 91
0
280
0
281
0
  0
CLASS
  1
ACDBPLACEHOLDER
  2
AcDbPlaceHolder
  3
ObjectDBX Classes
 90
0
 91
0
280
0
281
0
  0
ENDSEC
  0
SECTION
  2
TABLES
  0
TABLE
  2
VPORT
  5
8
330
0
100
AcDbSymbolTable
 70
1
  0
VPORT
  5
23
330
8
100
AcDbSymbolTableRecord
100
AcDbViewportTableRecord
  2
*Active
 70
0
 10
0.0
 20
0.0
 11
1.0
 21
1.0
 12
0.0
 22
0.0
 13
0.0
 23
0.0
 14
0.5
 24
0.5
 15
0.5
 25
0.5
 16
0.0
 26
0.0
 36
1.0
 17
0.0
 27
0.0
 37
0.0
 40
1000.0
 41
1.34
 42
50.0
 43
0.0
 44
0.0
 50
0.0
 51
0.0
 71
0
 72
1000
 73
1
 74
3
 75
0
 76
0
 77
0
 78
0
281
0
 65
0
146
0.0
  0
ENDTAB
  0
TABLE
  2
LTYPE
  5
2
330
0
100
AcDbSymbolTable
 70
3
  0
LTYPE
  5
24
330
2
100
AcDbSymbolTableRecord
100
AcDbLinetypeTableRecord
  2
ByBlock
 70
0
  3

 72
65
 73
0
 40
0.0
  0
LTYPE
  5
25
330
2
100
AcDbSymbolTableRecord
100
AcDbLinetypeTableRecord
  2
ByLayer
 70
0
  3

 72
65
 73
0
 40
0.0
  0
LTYPE
  5
26
330
2
100
AcDbSymbolTableRecord
100
AcDbLinetypeTableRecord
  2
Continuous
 70
0
  3

 72
65
 73
0
 40
0.0
  0
ENDTAB
  0
TABLE
  2
LAYER
  5
1
330
0
100
AcDbSymbolTable
 70
3
  0
LAYER
  5
27
330
1
100
AcDbSymbolTableRecord
100
AcDbLayerTableRecord
  2
0
 70
0
 62
7
  6
Continuous
370
-3
390
13
347
21
  0
LAYER
  5
28
330
1
100
AcDbSymbolTableRecord
100
AcDbLayerTableRecord
  2
Defpoints
 70
0
 62
7
  6
Continuous
290
0
370
-3
390
13
347
21
  0
LAYER
  5
31
330
1
100
AcDbSymbolTableRecord
100
AcDbLayerTableRecord
  2
ASA_PRINCIPAL
 70
0
 62
7
  6
Continuous
370
-3
390
13
347
21
  0
ENDTAB
  0
TABLE
  2
STYLE
  5
5
330
0
100
AcDbSymbolTable
 70
1
  0
STYLE
  5
29
330
5
100
AcDbSymbolTableRecord
100
AcDbTextStyleTableRecord
  2
Standard
 70
0
 40
0.0
 41
1.0
 50
0.0
 71
0
 42
2.5
  3
txt
  4

  0
ENDTAB
  0
TABLE
  2
VIEW
  5
7
330
0
100
AcDbSymbolTable
 70
0
  0
ENDTAB
  0
TABLE
  2
UCS
  5
6
330
0
100
AcDbSymbolTable
 70
0
  0
ENDTAB
  0
TABLE
  2
APPID
  5
3
330
0
100
AcDbSymbolTable
 70
3
  0
APPID
  5
2A
330
3
100
AcDbSymbolTableRecord
100
AcDbRegAppTableRecord
  2
ACAD
 70
0
  0
APPID
  5
32
330
3
100
AcDbSymbolTableRecord
100
AcDbRegAppTableRecord
  2
HATCHBACKGROUNDCOLOR
 70
0
  0
APPID
  5
33
330
3
100
AcDbSymbolTableRecord
100
AcDbRegAppTableRecord
  2
EZDXF
 70
0
  0
ENDTAB
  0
TABLE
  2
DIMSTYLE
  5
4
330
0
100
AcDbSymbolTable
 70
1
100
AcDbDimStyleTable
  0
DIMSTYLE
105
2B
330
4
100
AcDbSymbolTableRecord
100
AcDbDimStyleTableRecord
  2
Standard
 70
0
 40
1.0
 41
2.5
 42
0.625
 43
3.75
 44
1.25
 45
0.0
 46
0.0
 47
0.0
 48
0.0
 49
2.5
140
2.5
141
2.5
142
0.0
143
0.03937007874
144
1.0
145
0.0
146
1.0
147
0.625
148
0.0
 69
0
 70
0
 71
0
 72
0
 73
0
 74
0
 75
0
 76
0
 77
1
 78
8
 79
3
170
0
171
3
172
1
173
0
174
0
175
0
176
0
177
0
178
0
179
2
271
2
272
2
273
2
274
3
275
0
276
0
277
2
278
44
279
0
280
0
281
0
282
0
283
0
284
8
285
0
286
0
288
0
289
3
290
0
371
-2
372
-2
  0
ENDTAB
  0
TABLE
  2
BLOCK_RECORD
  5
9
330
0
100
AcDbSymbolTable
 70
2
  0
BLOCK_RECORD
  5
17
330
9
100
AcDbSymbolTableRecord
100
AcDbBlockTableRecord
  2
*Model_Space
340
1A
 70
0
280
1
281
0
  0
BLOCK_RECORD
  5
1B
330
9
100
AcDbSymbolTableRecord
100
AcDbBlockTableRecord
  2
*Paper_Space
340
1E
 70
0
280
1
281
0
  0
ENDTAB
  0
ENDSEC
  0
SECTION
  2
BLOCKS
  0
BLOCK
  5
18
330
17
100
AcDbEntity
  8
0
100
AcDbBlockBegin
  2
*Model_Space
 70
0
 10
0.0
 20
0.0
 30
0.0
  3
*Model_Space
  1

  0
ENDBLK
  5
19
330
17
100
AcDbEntity
  8
0
100
AcDbBlockEnd
  0
BLOCK
  5
1C
330
1B
100
AcDbEntity
  8
0
100
AcDbBlockBegin
  2
*Paper_Space
 70
0
 10
0.0
 20
0.0
 30
0.0
  3
*Paper_Space
  1

  0
ENDBLK
  5
1D
330
1B
100
AcDbEntity
  8
0
100
AcDbBlockEnd
  0
ENDSEC
  0
SECTION
  2
ENTITIES
  0
LWPOLYLINE
  5
2F
330
17
100
AcDbEntity
  8
ASA_PRINCIPAL
 62
7
100
AcDbPolyline
 90
402
 70
1
 10
0.5
 20
0.31800312500000005
 10
1.2989949748743719
 20
0.8179124780731293
 10
2.0979899497487438
 20
1.3077319340172457
 10
2.8969849246231156
 20
1.7875380037485886
 10
3.6959798994974875
 20
2.257407198183396
 10
4.494974874371859
 20
2.7174160282379076
 10
5.293969849246231
 20
3.1676410048283614
 10
6.092964824120603
 20
3.608158638870995
 10
6.891959798994975
 20
4.03904544128205
 10
7.690954773869347
 20
4.460377922977762
 10
8.489949748743719
 20
4.872232594874371
 10
9.28894472361809
 20
5.274685967888117
 10
10.087939698492463
 20
5.667814552935237
 10
10.886934673366834
 20
6.0516948609319705
 10
11.685929648241206
 20
6.4264034027945565
 10
12.484924623115578
 20
6.792016689439232
 10
13.28391959798995
 20
7.148611231782239
 10
14.082914572864322
 20
7.496263540739812
 10
14.881909547738694
 20
7.835050127228193
 10
15.680904522613066
 20
8.16504750216362
 10
16.479899497487438
 20
8.486332176462332
 10
17.27889447236181
 20
8.798980661040567
 10
18.07788944723618
 20
9.103069466814564
 10
18.876884422110553
 20
9.39867510470056
 10
19.675879396984925
 20
9.685874085614795
 10
20.474874371859297
 20
9.964742920473514
 10
21.27386934673367
 20
10.23535812019294
 10
22.07286432160804
 20
10.497796195689329
 10
22.871859296482413
 20
10.752133657878908
 10
23.670854271356784
 20
10.998447017677925
 10
24.469849246231156
 20
11.236812786002607
 10
25.268844221105528
 20
11.467307473769207
 10
26.0678391959799
 20
11.690007591893949
 10
26.866834170854272
 20
11.904989651293086
 10
27.665829145728644
 20
12.112330162882841
 10
28.464824120603016
 20
12.31210563757947
 10
29.263819095477388
 20
12.504392586299197
 10
30.06281407035176
 20
12.689267519958275
 10
30.86180904522613
 20
12.866806949472922
 10
31.660804020100503
 20
13.0370873857594
 10
32.459798994974875
 20
13.200185339733931
 10
33.25879396984925
 20
13.356177322312762
 10
34.05778894472362
 20
13.505139844412128
 10
34.85678391959799
 20
13.647149416948274
 10
35.65577889447236
 20
13.782282550837426
 10
36.45477386934674
 20
13.910615756995835
 10
37.253768844221106
 20
14.032225546339735
 10
38.052763819095475
 20
14.14718842978537
 10
38.85175879396985
 20
14.255580918248963
 10
39.650753768844226
 20
14.357479522646772
 10
40.449748743718594
 20
14.452960753895022
 10
41.24874371859296
 20
14.542101122909965
 10
42.04773869346734
 20
14.624977140607824
 10
42.84673366834171
 20
14.70166531790485
 10
43.64572864321608
 20
14.772242165717273
 10
44.44472361809045
 20
14.836784194961341
 10
45.243718592964825
 20
14.895367916553282
 10
46.0427135678392
 20
14.948069841409342
 10
46.84170854271357
 20
14.994966480445758
 10
47.64070351758794
 20
15.036134344578775
 10
48.43969849246231
 20
15.071649944724616
 10
49.23869346733669
 20
15.101589791799535
 10
50.037688442211056
 20
15.126030396719763
 10
50.836683417085425
 20
15.145048270401544
 10
51.6356783919598
 20
15.15871992376111
 10
52.434673366834176
 20
15.167121867714703
 10
53.233668341708544
 20
15.17033061317856
 10
54.03266331658291
 20
15.168422671068932
 10
54.83165829145729
 20
15.161474552302034
 10
55.63065326633166
 20
15.149562767794125
 10
56.42964824120603
 20
15.132763828461435
 10
57.2286432160804
 20
15.11115424522021
 10
58.027638190954775
 20
15.084810528986674
 10
58.82663316582915
 20
15.053809190677082
 10
59.62562814070352
 20
15.018226741207663
 10
60.42462311557789
 20
14.978139691494663
 10
61.22361809045226
 20
14.933624552454308
 10
62.02261306532664
 20
14.884757835002851
 10
62.821608040201006
 20
14.831616050056518
 10
63.620603015075375
 20
14.774275708531565
 10
64.41959798994975
 20
14.71281332134421
 10
65.21859296482413
 20
14.647305399410707
 10
66.0175879396985
 20
14.57782845364729
 10
66.81658291457286
 20
14.504458994970198
 10
67.61557788944724
 20
14.427273534295662
 10
68.41457286432161
 20
14.346348582539935
 10
69.21356783919597
 20
14.261760650619248
 10
70.01256281407035
 20
14.17358624944984
 10
70.81155778894473
 20
14.081901889947941
 10
71.6105527638191
 20
13.986784083029809
 10
72.40954773869348
 20
13.88830933961167
 10
73.20854271356784
 20
13.786554170609769
 10
74.00753768844221
 20
13.681595086940328
 10
74.80653266331659
 20
13.573508599519608
 10
75.60552763819095
 20
13.462371219263838
 10
76.40452261306532
 20
13.348259457089258
 10
77.2035175879397
 20
13.2312498239121
 10
78.00251256281408
 20
13.111418830648613
 10
78.80150753768845
 20
12.988842988215028
 10
79.60050251256281
 20
12.863598807527595
 10
80.39949748743719
 20
12.735762799502535
 10
81.19849246231156
 20
12.605411475056098
 10
81.99748743718592
 20
12.472621345104526
 10
82.7964824120603
 20
12.337468920564053
 10
83.59547738693468
 20
12.20003071235091
 10
84.39447236180905
 20
12.060383231381348
 10
85.19346733668343
 20
11.918602988571601
 10
85.99246231155779
 20
11.774766494837909
 10
86.79145728643216
 20
11.628950261096506
 10
87.59045226130654
 20
11.481230798263638
 10
88.3894472361809
 20
11.331684617255538
 10
89.18844221105527
 20
11.180388228988448
 10
89.98743718592965
 20
11.027418144378602
 10
90.78643216080403
 20
10.872850874342243
 10
91.5854271356784
 20
10.716762929795612
 10
92.38442211055276
 20
10.559230821654944
 10
93.18341708542714
 20
10.400331060836473
 10
93.98241206030151
 20
10.240140158256448
 10
94.78140703517587
 20
10.078734624831107
 10
95.58040201005025
 20
9.916190971476679
 10
96.37939698492463
 20
9.752585709109404
 10
97.178391959799
 20
9.58799534864553
 10
97.97738693467338
 20
9.42249640100129
 10
98.77638190954774
 20
9.256165377092927
 10
99.57537688442211
 20
9.08907878783667
 10
100.37437185929649
 20
8.921313144148764
 10
101.17336683417085
 20
8.752944956945454
 10
101.97236180904522
 20
8.58405073714297
 10
102.7713567839196
 20
8.414706995657546
 10
103.57035175879398
 20
8.244990243405434
 10
104.36934673366835
 20
8.074976991302865
 10
105.16834170854271
 20
7.904743750266082
 10
105.96733668341709
 20
7.734367031211315
 10
106.76633165829146
 20
7.563923345054813
 10
107.56532663316582
 20
7.3934892027128125
 10
108.3643216080402
 20
7.223141115101548
 10
109.16331658291458
 20
7.052955593137256
 10
109.96231155778895
 20
6.883009147736182
 10
110.76130653266333
 20
6.713378289814564
 10
111.56030150753769
 20
6.544139530288642
 10
112.35929648241206
 20
6.375369380074644
 10
113.15829145728644
 20
6.20714435008882
 10
113.9572864321608
 20
6.039540951247411
 10
114.75628140703517
 20
5.872635694466645
 10
115.55527638190955
 20
5.706505090662761
 10
116.35427135678393
 20
5.541225650752006
 10
117.1532663316583
 20
5.376873885650617
 10
117.95226130653266
 20
5.213526306274833
 10
118.75125628140704
 20
5.051259423540883
 10
119.55025125628141
 20
4.890149748365018
 10
120.34924623115577
 20
4.730273791663475
 10
121.14824120603015
 20
4.571708064352487
 10
121.94723618090453
 20
4.414529077348291
 10
122.7462311557789
 20
4.258813341567134
 10
123.54522613065328
 20
4.104637367925251
 10
124.34422110552764
 20
3.9520776673388833
 10
125.14321608040201
 20
3.8012107507242607
 10
125.94221105527639
 20
3.652113128997633
 10
126.74120603015075
 20
3.5048613130752355
 10
127.54020100502512
 20
3.359531813873303
 10
128.3391959798995
 20
3.2162011423080736
 10
129.13819095477388
 20
3.074945809295792
 10
129.93718592964825
 20
2.9358423257526955
 10
130.73618090452263
 20
2.79896720259502
 10
131.535175879397
 20
2.6643969507390066
 10
132.33417085427135
 20
2.5322080811008956
 10
133.13316582914572
 20
2.4024771045969207
 10
133.9321608040201
 20
2.2752805321433227
 10
134.73115577889448
 20
2.150694874656338
 10
135.53015075376885
 20
2.0287966430522113
 10
136.32914572864323
 20
1.9096623482471782
 10
137.1281407035176
 20
1.7933685011574771
 10
137.92713567839195
 20
1.6799916126993502
 10
138.72613065326632
 20
1.5696081937890296
 10
139.5251256281407
 20
1.462294755342758
 10
140.32412060301507
 20
1.3581278082767734
 10
141.12311557788945
 20
1.2571838635073127
 10
141.92211055276383
 20
1.159539431950619
 10
142.7211055276382
 20
1.0652710245229284
 10
143.52010050251258
 20
0.9744551521404802
 10
144.31909547738695
 20
0.8871683257195128
 10
145.1180904522613
 20
0.8034870561762668
 10
145.91708542713567
 20
0.723487854426977
 10
146.71608040201005
 20
0.6472472313878844
 10
147.51507537688443
 20
0.574841697975226
 10
148.3140703517588
 20
0.5063477651052437
 10
149.11306532663318
 20
0.44184194369417457
 10
149.91206030150755
 20
0.38140074465825746
 10
150.7110552763819
 20
0.3251006789137322
 10
151.51005025125627
 20
0.27301825737683505
 10
152.30904522613065
 20
0.22522999096380594
 10
153.10804020100502
 20
0.18181239059088378
 10
153.9070351758794
 20
0.14284196717430633
 10
154.70603015075378
 20
0.10839523163031412
 10
155.50502512562815
 20
0.07854869487514492
 10
156.30402010050253
 20
0.05337886782503749
 10
157.1030150753769
 20
0.032962261396230555
 10
157.90201005025125
 20
0.01737538650496313
 10
158.70100502512562
 20
0.006694754067473244
 10
159.5
 20
0.0009968750000000283
 10
160.0
 20
0.0
 10
159.5
 20
-0.0009968750000000283
 10
158.70100502512562
 20
-0.006694754067473244
 10
157.90201005025125
 20
-0.01737538650496313
 10
157.10301507537687
 20
-0.03296226139623096
 10
156.3040201005025
 20
-0.053378867825038
 10
155.50502512562815
 20
-0.07854869487514492
 10
154.70603015075378
 20
-0.10839523163031412
 10
153.9070351758794
 20
-0.14284196717430633
 10
153.10804020100502
 20
-0.18181239059088378
 10
152.30904522613065
 20
-0.22522999096380594
 10
151.51005025125627
 20
-0.27301825737683505
 10
150.7110552763819
 20
-0.3251006789137322
 10
149.91206030150755
 20
-0.38140074465825746
 10
149.11306532663318
 20
-0.44184194369417457
 10
148.3140703517588
 20
-0.5063477651052437
 10
147.51507537688443
 20
-0.574841697975226
 10
146.71608040201005
 20
-0.6472472313878844
 10
145.91708542713567
 20
-0.723487854426977
 10
145.1180904522613
 20
-0.8034870561762668
 10
144.31909547738692
 20
-0.8871683257195146
 10
143.52010050251255
 20
-0.9744551521404823
 10
142.7211055276382
 20
-1.0652710245229284
 10
141.92211055276383
 20
-1.159539431950619
 10
141.12311557788945
 20
-1.2571838635073127
 10
140.32412060301507
 20
-1.3581278082767734
 10
139.5251256281407
 20
-1.462294755342758
 10
138.72613065326632
 20
-1.5696081937890296
 10
137.92713567839195
 20
-1.6799916126993502
 10
137.1281407035176
 20
-1.7933685011574771
 10
136.32914572864323
 20
-1.9096623482471782
 10
135.53015075376885
 20
-2.0287966430522113
 10
134.73115577889448
 20
-2.150694874656338
 10
133.9321608040201
 20
-2.2752805321433227
 10
133.13316582914572
 20
-2.4024771045969207
 10
132.33417085427135
 20
-2.5322080811008956
 10
131.53517587939697
 20
-2.6643969507390093
 10
130.7361809045226
 20
-2.798967202595023
 10
129.93718592964825
 20
-2.9358423257526955
 10
129.13819095477388
 20
-3.074945809295792
 10
128.3391959798995
 20
-3.2162011423080736
 10
127.54020100502512
 20
-3.359531813873303
 10
126.74120603015075
 20
-3.5048613130752355
 10
125.94221105527637
 20
-3.652113128997636
 10
125.14321608040201
 20
-3.8012107507242607
 10
124.34422110552764
 20
-3.9520776673388833
 10
123.54522613065326
 20
-4.104637367925253
 10
122.7462311557789
 20
-4.258813341567134
 10
121.94723618090453
 20
-4.414529077348291
 10
121.14824120603015
 20
-4.571708064352487
 10
120.34924623115577
 20
-4.730273791663475
 10
119.5502512562814
 20
-4.890149748365022
 10
118.75125628140704
 20
-5.051259423540883
 10
117.95226130653266
 20
-5.213526306274833
 10
117.15326633165829
 20
-5.376873885650619
 10
116.35427135678393
 20
-5.541225650752006
 10
115.55527638190955
 20
-5.706505090662761
 10
114.75628140703517
 20
-5.872635694466645
 10
113.9572864321608
 20
-6.039540951247411
 10
113.15829145728642
 20
-6.207144350088824
 10
112.35929648241206
 20
-6.375369380074644
 10
111.56030150753769
 20
-6.544139530288642
 10
110.76130653266331
 20
-6.7133782898145675
 10
109.96231155778895
 20
-6.883009147736182
 10
109.16331658291458
 20
-7.052955593137256
 10
108.3643216080402
 20
-7.223141115101548
 10
107.56532663316582
 20
-7.3934892027128125
 10
106.76633165829145
 20
-7.563923345054817
 10
105.96733668341709
 20
-7.734367031211315
 10
105.16834170854271
 20
-7.904743750266082
 10
104.36934673366834
 20
-8.074976991302867
 10
103.57035175879398
 20
-8.244990243405434
 10
102.7713567839196
 20
-8.414706995657546
 10
101.97236180904522
 20
-8.58405073714297
 10
101.17336683417085
 20
-8.752944956945454
 10
100.37437185929647
 20
-8.921313144148767
 10
99.57537688442211
 20
-9.08907878783667
 10
98.77638190954774
 20
-9.256165377092927
 10
97.97738693467336
 20
-9.422496401001293
 10
97.178391959799
 20
-9.58799534864553
 10
96.37939698492463
 20
-9.752585709109404
 10
95.58040201005025
 20
-9.916190971476679
 10
94.78140703517587
 20
-10.078734624831107
 10
93.9824120603015
 20
-10.240140158256454
 10
93.18341708542714
 20
-10.400331060836473
 10
92.38442211055276
 20
-10.559230821654944
 10
91.58542713567839
 20
-10.716762929795616
 10
90.78643216080403
 20
-10.872850874342243
 10
89.98743718592965
 20
-11.027418144378602
 10
89.18844221105527
 20
-11.180388228988448
 10
88.3894472361809
 20
-11.331684617255538
 10
87.59045226130652
 20
-11.48123079826364
 10
86.79145728643216
 20
-11.628950261096506
 10
85.99246231155779
 20
-11.774766494837909
 10
85.19346733668341
 20
-11.918602988571603
 10
84.39447236180905
 20
-12.060383231381348
 10
83.59547738693468
 20
-12.20003071235091
 10
82.7964824120603
 20
-12.337468920564053
 10
81.99748743718592
 20
-12.472621345104526
 10
81.19849246231155
 20
-12.605411475056101
 10
80.39949748743719
 20
-12.735762799502535
 10
79.60050251256281
 20
-12.863598807527595
 10
78.80150753768844
 20
-12.988842988215032
 10
78.00251256281408
 20
-13.111418830648613
 10
77.2035175879397
 20
-13.2312498239121
 10
76.40452261306532
 20
-13.348259457089258
 10
75.60552763819095
 20
-13.462371219263838
 10
74.80653266331657
 20
-13.57350859951961
 10
74.00753768844221
 20
-13.681595086940328
 10
73.20854271356784
 20
-13.786554170609769
 10
72.40954773869346
 20
-13.88830933961167
 10
71.6105527638191
 20
-13.986784083029809
 10
70.81155778894473
 20
-14.081901889947941
 10
70.01256281407035
 20
-14.17358624944984
 10
69.21356783919597
 20
-14.261760650619248
 10
68.4145728643216
 20
-14.346348582539935
 10
67.61557788944724
 20
-14.427273534295662
 10
66.81658291457286
 20
-14.504458994970198
 10
66.01758793969849
 20
-14.57782845364729
 10
65.21859296482413
 20
-14.647305399410707
 10
64.41959798994975
 20
-14.71281332134421
 10
63.620603015075375
 20
-14.774275708531565
 10
62.821608040201
 20
-14.831616050056525
 10
62.022613065326624
 20
-14.884757835002851
 10
61.22361809045226
 20
-14.933624552454308
 10
60.42462311557789
 20
-14.978139691494663
 10
59.62562814070351
 20
-15.018226741207664
 10
58.82663316582915
 20
-15.053809190677082
 10
58.027638190954775
 20
-15.084810528986674
 10
57.2286432160804
 20
-15.11115424522021
 10
56.429648241206024
 20
-15.132763828461437
 10
55.63065326633165
 20
-15.149562767794128
 10
54.83165829145729
 20
-15.161474552302034
 10
54.03266331658291
 20
-15.168422671068932
 10
53.23366834170854
 20
-15.170330613178566
 10
52.434673366834176
 20
-15.167121867714703
 10
51.6356783919598
 20
-15.15871992376111
 10
50.836683417085425
 20
-15.145048270401544
 10
50.03768844221105
 20
-15.126030396719763
 10
49.238693467336674
 20
-15.101589791799535
 10
48.43969849246231
 20
-15.071649944724616
 10
47.64070351758794
 20
-15.036134344578775
 10
46.84170854271356
 20
-14.99496648044576
 10
46.0427135678392
 20
-14.948069841409342
 10
45.243718592964825
 20
-14.895367916553282
 10
44.44472361809045
 20
-14.836784194961341
 10
43.645728643216074
 20
-14.772242165717273
 10
42.8467336683417
 20
-14.701665317904848
 10
42.04773869346734
 20
-14.624977140607824
 10
41.24874371859296
 20
-14.542101122909965
 10
40.44974874371859
 20
-14.452960753895024
 10
39.650753768844226
 20
-14.357479522646772
 10
38.85175879396985
 20
-14.255580918248963
 10
38.052763819095475
 20
-14.14718842978537
 10
37.2537688442211
 20
-14.032225546339737
 10
36.454773869346724
 20
-13.910615756995835
 10
35.65577889447236
 20
-13.782282550837426
 10
34.85678391959799
 20
-13.647149416948274
 10
34.05778894472361
 20
-13.505139844412131
 10
33.25879396984925
 20
-13.356177322312762
 10
32.459798994974875
 20
-13.200185339733931
 10
31.6608040201005
 20
-13.0370873857594
 10
30.861809045226124
 20
-12.866806949472926
 10
30.06281407035175
 20
-12.68926751995827
 10
29.263819095477373
 20
-12.504392586299193
 10
28.464824120602998
 20
-12.312105637579464
 10
27.66582914572865
 20
-12.112330162882847
 10
26.866834170854275
 20
-11.904989651293084
 10
26.0678391959799
 20
-11.690007591893949
 10
25.268844221105525
 20
-11.467307473769207
 10
24.46984924623115
 20
-11.23681278600261
 10
23.670854271356774
 20
-10.99844701767792
 10
22.8718592964824
 20
-10.752133657878906
 10
22.07286432160805
 20
-10.497796195689334
 10
21.273869346733676
 20
-10.235358120192945
 10
20.4748743718593
 20
-9.964742920473512
 10
19.675879396984925
 20
-9.685874085614795
 10
18.87688442211055
 20
-9.39867510470056
 10
18.077889447236174
 20
-9.103069466814562
 10
17.2788944723618
 20
-8.798980661040563
 10
16.479899497487423
 20
-8.486332176462327
 10
15.680904522613048
 20
-8.165047502163613
 10
14.881909547738701
 20
-7.835050127228196
 10
14.082914572864325
 20
-7.496263540739813
 10
13.28391959798995
 20
-7.148611231782239
 10
12.484924623115575
 20
-6.792016689439231
 10
11.6859296482412
 20
-6.426403402794554
 10
10.886934673366824
 20
-6.051694860931966
 10
10.087939698492448
 20
-5.66781455293523
 10
9.288944723618101
 20
-5.274685967888122
 10
8.489949748743726
 20
-4.872232594874375
 10
7.6909547738693504
 20
-4.460377922977765
 10
6.891959798994975
 20
-4.03904544128205
 10
6.0929648241206
 20
-3.6081586388709934
 10
5.293969849246224
 20
-3.167641004828357
 10
4.494974874371849
 20
-2.7174160282379014
 10
3.6959798994974733
 20
-2.257407198183388
 10
2.896984924623098
 20
-1.7875380037485782
 10
2.097989949748751
 20
-1.3077319340172504
 10
1.2989949748743754
 20
-0.8179124780731316
 10
0.5
 20
-0.31800312500000005
 10
0.5
 20
0.0
  0
LINE
  5
30
330
17
100
AcDbEntity
  8
0
  6
CENTER
 62
8
100
AcDbLine
 10
0.0
 20
0.0
 30
0.0
 11
160.0
 21
0.0
 31
0.0
  0
ENDSEC
  0
SECTION
  2
OBJECTS
  0
DICTIONARY
  5
A
330
0
100
AcDbDictionary
281
1
  3
ACAD_COLOR
350
B
  3
ACAD_GROUP
350
C
  3
ACAD_LAYOUT
350
D
  3
ACAD_MATERIAL
350
E
  3
ACAD_MLEADERSTYLE
350
F
  3
ACAD_MLINESTYLE
350
10
  3
ACAD_PLOTSETTINGS
350
11
  3
ACAD_PLOTSTYLENAME
350
12
  3
ACAD_SCALELIST
350
14
  3
ACAD_TABLESTYLE
350
15
  3
ACAD_VISUALSTYLE
350
16
  3
EZDXF_META
350
2D
  0
DICTIONARY
  5
B
330
A
100
AcDbDictionary
281
1
  0
DICTIONARY
  5
C
330
A
100
AcDbDictionary
281
1
  0
DICTIONARY
  5
D
330
A
100
AcDbDictionary
281
1
  3
Model
350
1A
  3
Layout1
350
1E
  0
DICTIONARY
  5
E
330
A
100
AcDbDictionary
281
1
  3
ByBlock
350
1F
  3
ByLayer
350
20
  3
Global
350
21
  0
DICTIONARY
  5
F
330
A
100
AcDbDictionary
281
1
  3
Standard
350
2C
  0
DICTIONARY
  5
10
330
A
100
AcDbDictionary
281
1
  3
Standard
350
22
  0
DICTIONARY
  5
11
330
A
100
AcDbDictionary
281
1
  0
ACDBDICTIONARYWDFLT
  5
12
330
A
100
AcDbDictionary
281
1
  3
Normal
350
13
100
AcDbDictionaryWithDefault
340
13
  0
ACDBPLACEHOLDER
  5
13
330
12
  0
DICTIONARY
  5
14
330
A
100
AcDbDictionary
281
1
  0
DICTIONARY
  5
15
330
A
100
AcDbDictionary
281
1
  0
DICTIONARY
  5
16
330
A
100
AcDbDictionary
281
1
  0
LAYOUT
  5
1A
330
D
100
AcDbPlotSettings
  1

  4
A3
  6

 40
7.5
 41
20.0
 42
7.5
 43
20.0
 44
420.0
 45
297.0
 46
0.0
 47
0.0
 48
0.0
 49
0.0
140
0.0
141
0.0
142
1.0
143
1.0
 70
1024
 72
1
 73
0
 74
5
  7

 75
16
 76
0
 77
2
 78
300
147
1.0
148
0.0
149
0.0
100
AcDbLayout
  1
Model
 70
1
 71
0
 10
0.0
 20
0.0
 11
420.0
 21
297.0
 12
0.0
 22
0.0
 32
0.0
 14
1e+20
 24
1e+20
 34
1e+20
 15
-1e+20
 25
-1e+20
 35
-1e+20
146
0.0
 13
0.0
 23
0.0
 33
0.0
 16
1.0
 26
0.0
 36
0.0
 17
0.0
 27
1.0
 37
0.0
 76
1
330
17
  0
LAYOUT
  5
1E
330
D
100
AcDbPlotSettings
  1

  4
A3
  6

 40
7.5
 41
20.0
 42
7.5
 43
20.0
 44
420.0
 45
297.0
 46
0.0
 47
0.0
 48
0.0
 49
0.0
140
0.0
141
0.0
142
1.0
143
1.0
 70
0
 72
1
 73
0
 74
5
  7

 75
16
 76
0
 77
2
 78
300
147
1.0
148
0.0
149
0.0
100
AcDbLayout
  1
Layout1
 70
1
 71
1
 10
0.0
 20
0.0
 11
420.0
 21
297.0
 12
0.0
 22
0.0
 32
0.0
 14
1e+20
 24
1e+20
 34
1e+20
 15
-1e+20
 25
-1e+20
 35
-1e+20
146
0.0
 13
0.0
 23
0.0
 33
0.0
 16
1.0
 26
0.0
 36
0.0
 17
0.0
 27
1.0
 37
0.0
 76
1
330
1B
  0
MATERIAL
  5
1F
102
{ACAD_REACTORS
330
E
102
}
330
E
100
AcDbMaterial
  1
ByBlock
  2

 70
0
 40
1.0
 71
1
 41
1.0
 91
-1023410177
 42
1.0
 72
1
  3

 73
1
 74
1
 75
1
 44
0.5
 73
0
 45
1.0
 46
1.0
 77
1
  4

 78
1
 79
1
170
1
 48
1.0
171
1
  6

172
1
173
1
174
1
140
1.0
141
1.0
175
1
  7

176
1
177
1
178
1
143
1.0
179
1
  8

270
1
271
1
272
1
145
1.0
146
1.0
273
1
  9

274
1
275
1
276
1
 42
1.0
 72
1
  3

 73
1
 74
1
 75
1
 94
63
  0
MATERIAL
  5
20
102
{ACAD_REACTORS
330
E
102
}
330
E
100
AcDbMaterial
  1
ByLayer
  2

 70
0
 40
1.0
 71
1
 41
1.0
 91
-1023410177
 42
1.0
 72
1
  3

 73
1
 74
1
 75
1
 44
0.5
 73
0
 45
1.0
 46
1.0
 77
1
  4

 78
1
 79
1
170
1
 48
1.0
171
1
  6

172
1
173
1
174
1
140
1.0
141
1.0
175
1
  7

176
1
177
1
178
1
143
1.0
179
1
  8

270
1
271
1
272
1
145
1.0
146
1.0
273
1
  9

274
1
275
1
276
1
 42
1.0
 72
1
  3

 73
1
 74
1
 75
1
 94
63
  0
MATERIAL
  5
21
102
{ACAD_REACTORS
330
E
102
}
330
E
100
AcDbMaterial
  1
Global
  2

 70
0
 40
1.0
 71
1
 41
1.0
 91
-1023410177
 42
1.0
 72
1
  3

 73
1
 74
1
 75
1
 44
0.5
 73
0
 45
1.0
 46
1.0
 77
1
  4

 78
1
 79
1
170
1
 48
1.0
171
1
  6

172
1
173
1
174
1
140
1.0
141
1.0
175
1
  7

176
1
177
1
178
1
143
1.0
179
1
  8

270
1
271
1
272
1
145
1.0
146
1.0
273
1
  9

274
1
275
1
276
1
 42
1.0
 72
1
  3

 73
1
 74
1
 75
1
 94
63
  0
MLINESTYLE
  5
22
102
{ACAD_REACTORS
330
10
102
}
330
10
100
AcDbMlineStyle
  2
Standard
 70
0
  3

 62
256
 51
90.0
 52
90.0
 71
2
 49
0.5
 62
256
  6
BYLAYER
 49
-0.5
 62
256
  6
BYLAYER
  0
MLEADERSTYLE
  5
2C
102
{ACAD_REACTORS
330
F
102
}
330
F
100
AcDbMLeaderStyle
179
2
170
2
171
1
172
0
 90
2
 40
0.0
 41
0.0
173
1
 91
-1056964608
 92
-2
290
1
 42
2.0
291
1
 43
8.0
  3
Standard
 44
4.0
300

342
29
174
1
175
1
176
0
178
1
 93
-1056964608
 45
4.0
292
0
297
0
 46
4.0
 94
-1056964608
 47
1.0
 49
1.0
140
1.0
294
1
141
0.0
177
0
142
1.0
295
0
296
0
143
3.75
271
0
272
9
273
9
  0
DICTIONARY
  5
2D
330
A
100
AcDbDictionary
280
1
281
1
  3
CREATED_BY_EZDXF
350
2E
  3
WRITTEN_BY_EZDXF
350
34
  0
DICTIONARYVAR
  5
2E
330
2D
100
DictionaryVariables
280
0
  1
1.4.3 @ 2026-03-31T17:25:10.107195+00:00
  0
DICTIONARYVAR
  5
34
330
2D
100
DictionaryVariables
280
0
  1
1.4.3 @ 2026-03-31T17:25:10.115523+00:00
  0
ENDSEC
  0
EOF
